<svg xmlns="http://www.w3.org/2000/svg" shape-rendering="geometricPrecision" text-rendering="geometricPrecision" image-rendering="optimizeQuality" fill-rule="evenodd" clip-rule="evenodd" viewBox="0 0 512 515.142"><path d="M287.644 140.552l86.489-38.812c17.792-8.093 36.482 9.437 29.978 27.63l-31.799 89.368 63.648 70.266c13.362 14.748 1.872 38.159-17.745 36.949l-94.018-2.604-47.171 82.269c-9.729 17.017-35.243 13.877-40.625-4.939l-26.686-90.777 11.499 39.121L62.659 507.578l-1.421 1.26c-10.31 8.931-26.066 8.274-35.71-1.345h-.063L7.668 489.697c-10.221-10.222-10.225-27.052-.004-37.274l152.835-152.831-43.542-9.126c-19.149-4-24.059-28.987-8.008-39.946l78.19-53.591-10.197-94.304c-2.103-19.474 20.49-31.9 35.82-19.676l74.882 57.603zm-77.929 169.35l-30.556-6.398-25.99 25.99 3.676 61.321 59.239-59.239-6.369-21.674zM80.539 402.124l-61.587 61.587c-4.042 4.047-4.042 10.647.004 14.698l17.797 17.796c4.05 4.047 10.579 4.118 14.618.085l32.519-32.52-3.351-61.646zm160.397-124.661l-59.93-12.561c-4.253-.868-5.29-6.411-1.783-8.814l50.522-34.627-6.584-60.904c-.472-4.409 4.675-7.068 8.017-4.287l48.385 37.237 55.884-25.08c3.958-1.779 8.034 2.129 6.613 6.107l-20.519 57.718 41.119 45.397c2.967 3.279.387 8.429-3.942 8.168l-61.047-1.686-30.467 53.136c-2.166 3.789-7.81 3.026-8.99-1.088l-17.278-58.716zm146.399 170.922l10.057-5.758c3.962-2.263 5.614-7.524 3.081-11.317l-38.324-57.292c-6.212-9.303-20.991-.864-16.114 9.223l29.982 62.067c1.985 4.106 7.355 5.345 11.318 3.077zM65.879 132.278L61.234 142.9c-1.829 4.182-.017 9.387 4.274 10.922l64.925 23.149c10.525 3.772 17.371-11.815 7.44-17.012L76.8 128.004c-4.042-2.112-9.092.097-10.921 4.274zM289.637 0h-11.591c-4.565 0-8.612 3.747-8.296 8.295l4.806 68.761c.767 11.153 17.792 11.175 18.567 0l4.805-68.761c.316-4.552-3.73-8.295-8.291-8.295zm222.119 190.974l-2.769-11.259c-1.088-4.43-5.695-7.465-10.033-6.07l-65.62 21.093c-10.652 3.41-6.614 19.945 4.434 18.027l67.918-11.76c4.493-.779 7.162-5.601 6.07-10.031zM220.708 297.999L119.79 276.852c-7.161-1.467-8.907-10.799-3.001-14.842l85.073-58.307-11.086-102.549c-.796-7.427 7.87-11.907 13.497-7.216l81.474 62.695 94.098-42.227c6.668-2.997 13.53 3.579 11.14 10.281l-34.56 97.187 69.242 76.441c4.995 5.517.653 14.192-6.635 13.75l-102.793-2.837-51.302 89.474c-3.651 6.381-13.151 5.092-15.141-1.834l-29.088-98.869z"/></svg>